<svg width="180" height="180" viewBox="0 0 180 180" xmlns="http://www.w3.org/2000/svg" xmlns:xlink="http://www.w3.org/1999/xlink"><title>love-comes-first-180</title><defs><path d="M9.177 32.972c.08-.672.163-1.394.252-2.154l2.963-25.386c.31-2.656 2.732-4.81 5.397-4.81h11.936c2.67 0 5.135 2.147 5.504 4.792l3.003 21.537.2 1.426 5.742 41.182c.37 2.644-1.495 4.787-4.177 4.787H9.192c-2.676 0-4.593-2.152-4.284-4.8l4.27-36.573z" id="a"/><mask id="i" x="0" y="0" width="39.346" height="73.724" fill="#fff"><use xlink:href="#a"/></mask><rect id="b" x="36.51" y="7.19" width="7.779" height="36.5" rx="3.889"/><mask id="j" x="0" y="0" width="7.779" height="36.5" fill="#fff"><use xlink:href="#b"/></mask><path d="M35.312 38.806V10.4c0-2.17 1.763-3.93 3.928-3.93 2.17 0 3.93 1.758 3.93 3.93V38.82l-7.858-.014z" id="c"/><mask id="k" x="0" y="0" width="7.857" height="32.349" fill="#fff"><use xlink:href="#c"/></mask><rect id="d" x="4.888" y="6.586" width="7.779" height="36.5" rx="3.889"/><mask id="l" x="0" y="0" width="7.779" height="36.5" fill="#fff"><use xlink:href="#d"/></mask><path d="M5.582 38.86V10.45c0-2.17 1.763-3.928 3.93-3.928 2.17 0 3.927 1.758 3.927 3.93v28.42L5.58 38.86z" id="e"/><mask id="m" x="0" y="0" width="7.857" height="32.349" fill="#fff"><use xlink:href="#e"/></mask><path d="M.072 17.04C.072 7.705 7.638.137 16.976.137c9.336 0 16.905 7.576 16.905 16.903v11.763c0 9.335-7.566 16.903-16.904 16.903C7.64 45.706.072 38.13.072 28.803V17.04z" id="f"/><mask id="n" x="0" y="0" width="33.809" height="45.569" fill="#fff"><use xlink:href="#f"/></mask><path d="M5.143 18.732C5.143 12.197 10.44 6.9 16.976 6.9c6.536 0 11.833 5.293 11.833 11.832v6.138c0 6.536-5.294 11.563-11.825 11.23h-.017c-6.53.333-11.825-4.69-11.825-11.23v-6.138z" id="g"/><mask id="o" x="0" y="0" width="23.666" height="29.216" fill="#fff"><use xlink:href="#g"/></mask><mask id="p" x="0" y="0" width="23.666" height="29.216" fill="#fff"><use xlink:href="#g"/></mask><path d="M14.793 7.2c-5.15 0-9.317 8.687-14.467 8.687v-5.792c0-4.268 3.434-8.172 7.65-8.714 0 0 7.17-.94 7.686-.94l5.596.814c4.222.615 7.644 4.578 7.644 8.84v5.793c-4.375 0-9.733-8.686-14.11-8.686z" id="h"/><mask id="r" x="0" y="0" width="28.576" height="15.447" fill="#fff"><use xlink:href="#h"/></mask><mask id="s" x="0" y="0" width="28.576" height="15.447" fill="#fff"><use xlink:href="#h"/></mask></defs><g fill="none" fill-rule="evenodd"><path d="M71.506 148.423s-28.02-.983-17.54 5.114c10.478 6.098 6.605 9.44 24.147 6.688 17.54-2.754 17.54-2.032 28.93-3.737 11.392-1.706 22.1-3.148 9.342-6.098-12.758-2.95-44.88-1.967-44.88-1.967z" stroke="#F60" stroke-width="1.209" fill="#FAC285"/><g transform="translate(78.97 20.373)"><ellipse fill="#FAC285" cx="1.82" cy="1.964" rx="1.7" ry="1.7"/><g stroke="#F60" stroke-width="1.133" stroke-linecap="round"><path d="M8.268.83v5.78M11.213 3.664h-5.78"/></g></g><g transform="translate(127.23 44.17)"><circle fill="#FAC285" cx="14.611" cy="8.499" r="1.7"/><g stroke="#F60" stroke-width="1.133" stroke-linecap="round"><path d="M7.756 10.766v5.78M10.7 13.6H4.924"/></g><g stroke="#F60" stroke-width="1.133" stroke-linecap="round"><path d="M2.983.567v5.778M5.93 3.4H.15M.94 1.357l4.086 4.086M5.082 1.357L.996 5.443"/></g></g><g stroke="#F60" stroke-width="1.133" stroke-linecap="round"><path d="M135.445 19.895v5.78M138.39 22.73h-5.778M133.402 20.686l4.086 4.086M137.544 20.686l-4.086 4.086"/></g><path d="M112.425 53.918v68.046" stroke="#F60" stroke-width="1.648" stroke-linecap="round"/><g transform="translate(63.35 77.435)"><rect fill="#F60" x="15.543" y="71.979" width="6.648" height="4.835" rx="2.418"/><rect fill="#F60" x="26.364" y="71.979" width="6.648" height="4.835" rx="2.418"/><path d="M9.176 32.368l.25-2.154 2.965-25.386C12.7 2.17 15.124.018 17.79.018h11.936c2.67 0 5.135 2.147 5.504 4.79l3.004 21.54.198 1.423 5.743 41.184c.37 2.644-1.495 4.787-4.177 4.787H9.19c-2.676 0-4.593-2.152-4.284-4.8l4.27-36.572z" fill="#FFF"/><path d="M23.098 13.73s-6.498 1.284-2.342 7.706c4.155 6.422 9.972 5.44 14.052 13.9 4.08 8.463-1.662 38.306-1.662 38.306l7.933.226s3.55-1.586 2.945-4.23c-.604-2.645-6.648-42.31-6.648-42.31l-5.97-15.26-8.31 1.662zM8.216 50.75s.68 9.746 3.022 13.372c2.342 3.627 4.155 9.897 4.155 9.897l-7.555-.303s-2.947-1.21-2.493-3.853c.453-2.644 2.87-19.114 2.87-19.114z" fill="#FAC285"/><use stroke="#F60" mask="url(#i)" stroke-width="3.297" xlink:href="#a"/><path d="M34.58 9.65s6.348 16.092 7.405 17.98c1.058 1.89 5.667 8.236 5.667 8.236l.68-.907-11.03-25.99-1.663-.907-1.06 1.587z" fill="#FAC285"/><use stroke="#F60" mask="url(#j)" stroke-width="3.297" transform="rotate(-23 40.4 25.44)" xlink:href="#b"/><path d="M42.122 36.506l-.97-2.285c-3.157-7.436-8.7-21.734-8.7-21.734s-.123-.742.78-1.48c.902-.737 1.476-.98 1.476-.98s6.687 14.9 9.77 22.16l1.198 2.825-3.554 1.496z" fill="#FFF"/><use stroke="#F60" mask="url(#k)" stroke-width="3.297" transform="rotate(-23 39.24 22.645)" xlink:href="#c"/><use stroke="#F60" mask="url(#l)" stroke-width="3.297" transform="rotate(16 8.778 24.836)" xlink:href="#d"/><use stroke="#F60" mask="url(#m)" stroke-width="3.297" fill="#FFF" transform="rotate(16 9.51 22.698)" xlink:href="#e"/></g><g transform="translate(70.107 45.62)"><path d="M.072 17.04C.072 7.705 7.638.137 16.976.137c9.336 0 16.905 7.576 16.905 16.903v11.763c0 9.335-7.566 16.903-16.904 16.903C7.64 45.706.072 38.13.072 28.803V17.04z" fill="#FFF"/><path d="M15.512 1.043s-3.4.68-1.058 2.418c2.342 1.74 12.39 3.1 15.26 7.33 2.872 4.23 1.135 19.416 1.135 19.038 0-.377-.078 4.08-4.385 8.01-4.306 3.927-11.937 6.798-8.386 6.798 3.55 0 10.88-3.248 11.635-4.76.756-1.51 4.91-6.497 4.005-14.354-.907-7.857.528-11.182-2.87-17.15-3.4-5.97-10.2-7.48-11.485-7.48-1.286 0-3.853.15-3.853.15z" fill="#FAC285"/><use stroke="#F60" mask="url(#n)" stroke-width="3.297" xlink:href="#f"/><mask id="q" fill="#fff"><use xlink:href="#g"/></mask><use mask="url(#p)" xlink:href="#g" stroke="#F60" stroke-width="3.297" fill="#FFF"/><g mask="url(#q)"><path d="M17.474 7.088s6.236 6.24 6.84 12.285c.323 3.23.378 5.986-.215 9.087-.518 2.703-7.333 5.957-7.333 5.957s3.552.557 6.282-1.577c2.73-2.133 3.292-3.715 3.838-5.542.51-1.707.247-5.63.417-7.75.27-3.37-.173-6.69-.915-7.247-1.21-.906-8.916-5.212-8.916-5.212z" fill="#FAC285"/><use mask="url(#s)" xlink:href="#h" stroke="#F60" fill="#F60" transform="translate(2.418 5.44)"/></g><path d="M10.67 26.253c1.668 0 2.818-1.3 2.818-2.97 0-1.668-1.15-2.925-2.82-2.925" fill="#F60" mask="url(#q)" transform="rotate(-89 12.078 23.306)"/><path d="M10.67 26.253c1.668 0 2.818-1.3 2.818-2.97 0-1.668-1.15-2.925-2.82-2.925" fill="#F60" mask="url(#q)" transform="rotate(-89 12.078 23.306)"/><path d="M20.717 26.253c1.67 0 2.82-1.3 2.82-2.97 0-1.668-1.15-2.925-2.82-2.925" fill="#F60" mask="url(#q)" transform="rotate(-89 22.127 23.306)"/><path d="M17.173 31.453c2.304 0 2.115-1.47 2.115-2.305 0-.834.227 0-2.115 0s-2.116-.834-2.116 0c0 .835 0 2.305 2.116 2.305z" fill="#F60" mask="url(#q)"/></g><path d="M96.8 30.648c.453-1.662 1.51-4.986 5.4-5.364" stroke="#F60" stroke-width="1.648" stroke-linecap="round"/><path d="M112.816 32.763s7.253-7.878 11.634-1.51c4.382 6.367-11.634 22.363-11.634 22.363s17.603-14.582 18.132-17.226c.53-2.644 1.21-7.404-.605-9.973-1.813-2.57-4.684-6.044-10.35-4.382-5.666 1.662-7.177 10.728-7.177 10.728z" fill="#FAC285"/><path d="M112.533 54.1s17.55-11.91 19.04-21.034c.724-4.443-2.902-11.242-9.702-11.242s-9.337 9.247-9.337 9.247-2.342-9.246-9.61-9.246c-7.268 0-9.973 7.343-8.976 11.242 2.302 9 18.586 21.033 18.586 21.033z" stroke="#F60" stroke-width="1.648"/><path d="M76.956 87.876s-2.41 5.197-3.2 7.917c-.845 2.903-1.76 9.59-2.702 13.352-1.08 4.327-1.542 5.177-1.542 5.177l1.684.485 7.31-25.912-1.55-1.02z" fill="#FAC285"/></g></svg>